# xmcd
#
# Track frame offsets:
#	150
#	14112
#	40760
#	61637
#	64622
#	75437
#	95727
#	120327
#	135200
#	147465
#	164047
#	181822
#	197562
#	222125
#	247390
#
# Disc length: 3467 seconds
#
# Revision: 8
# Processed by: cddbd v1.5.2PL0 Copyright (c) Steve Scherf et al.
# Submitted via: audiograbber 1.83.01
#
DISCID=d00d890f
DTITLE=Clint Black - D'lectrified
DYEAR=1999
DGENRE=Country
TTITLE0=Clint Black - Bob Away My Blues [Unplugged]
TTITLE1=Clint Black f Waylon Jennings - Are You Sure Waylon Done It This Way [U
TTITLE1=nplugged]
TTITLE2=Clint Black - Hand in the Fire [Unplugged]
TTITLE3=Clint Black f Eric Idle - Outside Intro (To Galaxy Song) [Unplugged]
TTITLE4=Clint Black - Galaxy Song [Unplugged]
TTITLE5=Clint Black f Lisa Hartman Black - When I Said I Do [Unplugged]
TTITLE6=Clint Black f Steve Wariner - Been There [Unplugged]
TTITLE7=Clint Black f Bruce Hornsby - Dixie Lullaby [Unplugged]
TTITLE8=Clint Black - Where Your Love Don't Go [Unplugged]
TTITLE9=Clint Black - Love She Can't Live Without [Unplugged]
TTITLE10=Clint Black - Burn One Down [Unplugged]
TTITLE11=Clint Black - Who I Used To Be [Unplugged]
TTITLE12=Clint Black f Kenny Loggins - Harmony [Unplugged]
TTITLE13=Clint Black - No Time To Kill [Unplugged]
TTITLE14=Clint Black - Something That We Do (Instrumental) [Unplugged]
EXTD=WARNING: No Electric Instruments Used In This Recording ID3G:   2
EXTT0=
EXTT1=
EXTT2=
EXTT3=
EXTT4=
EXTT5=
EXTT6=
EXTT7=
EXTT8=
EXTT9=
EXTT10=
EXTT11=
EXTT12=
EXTT13=
EXTT14=
PLAYORDER=
